#define tile_width 14
#define tile_height 14
static unsigned char tile_bits[] = {
   0xff, 0x3f, 0x81, 0x20, 0x81, 0x20, 0x81, 0x20, 0x81, 0x3f, 0x81, 0x20,
   0x81, 0x20, 0x81, 0x20, 0x81, 0x20, 0x81, 0x3f, 0x81, 0x20, 0x81, 0x20,
   0x81, 0x20, 0xff, 0x3f };
